<?xml version="1.0" standalone="no"?>
<!DOCTYPE svg PUBLIC "-//W3C//DTD SVG 20010904//EN"
 "http://www.w3.org/TR/2001/REC-SVG-20010904/DTD/svg10.dtd">
<svg version="1.0" xmlns="http://www.w3.org/2000/svg"
 width="105.000000pt" height="88.000000pt" viewBox="0 0 105.000000 88.000000"
 preserveAspectRatio="xMidYMid meet">

<g transform="translate(0.000000,88.000000) scale(0.100000,-0.100000)"
fill="#000000" stroke="none">
<path d="M318 679 c24 -22 37 -27 46 -20 7 6 32 19 57 30 l44 21 -90 -1 -90 0
33 -30z"/>
<path d="M615 681 l50 -29 23 21 c12 11 22 24 22 29 0 4 -33 8 -72 8 l-73 0
50 -29z"/>
<path d="M357 582 c-19 -4 -47 -51 -47 -80 0 -30 38 -72 65 -72 22 0 65 41 65
61 0 5 -13 9 -30 9 -16 0 -30 -4 -30 -10 0 -5 8 -10 17 -10 12 0 14 -3 6 -11
-6 -6 -21 -9 -34 -7 -46 6 -35 98 12 98 10 0 22 -8 28 -17 5 -10 13 -14 17
-10 20 20 -32 58 -69 49z"/>
<path d="M460 505 l0 -75 44 0 c58 0 69 18 14 22 -35 2 -43 7 -43 23 0 14 8
21 28 23 37 4 34 22 -4 22 -24 0 -30 4 -27 18 2 12 15 18 46 20 55 4 44 22
-14 22 l-44 0 0 -75z"/>
<path d="M587 573 c-12 -11 -8 -143 4 -143 6 0 9 22 7 56 -3 61 11 81 30 42
l11 -23 7 23 c3 12 13 22 21 22 12 0 14 -11 8 -60 -6 -52 -5 -60 9 -60 14 0
16 11 14 72 -3 61 -6 73 -21 76 -10 2 -24 -4 -31 -14 -12 -15 -13 -15 -19 0
-6 16 -28 21 -40 9z"/>
<path d="M140 541 c-40 -5 -45 -9 -48 -33 l-3 -28 84 0 c79 0 85 1 91 23 13
50 0 54 -124 38z"/>
<path d="M750 516 l0 -36 90 0 c89 0 90 0 90 24 0 14 -3 27 -8 30 -4 2 -44 7
-90 11 l-82 8 0 -37z"/>
<path d="M583 350 c0 -25 2 -35 4 -22 2 12 2 32 0 45 -2 12 -4 2 -4 -23z"/>
<path d="M633 355 c0 -22 2 -30 4 -17 2 12 2 30 0 40 -3 9 -5 -1 -4 -23z"/>
<path d="M420 356 c0 -2 8 -10 18 -17 15 -13 16 -12 3 4 -13 16 -21 21 -21 13z"/>
<path d="M167 243 c-11 -11 -8 -40 6 -52 10 -8 21 -2 47 24 l34 35 -40 0 c-23
0 -44 -3 -47 -7z"/>
<path d="M790 215 c32 -33 35 -34 52 -18 36 33 17 53 -50 53 l-36 0 34 -35z"/>
<path d="M425 80 c-9 -27 -1 -37 35 -42 31 -5 34 0 24 40 -8 29 -50 31 -59 2z"/>
<path d="M536 78 c-11 -42 -8 -46 27 -39 17 4 32 12 31 19 -1 7 -2 19 -2 27
-3 25 -49 19 -56 -7z"/>
</g>
</svg>
